<?xml version="1.0" encoding="UTF-8"?>
<svg id="Layer_3" xmlns="http://www.w3.org/2000/svg" width="812.7" height="1005" xmlns:xlink="http://www.w3.org/1999/xlink" version="1.1" viewBox="0 0 812.7 1005">
  <!-- Generator: Adobe Illustrator 30.0.0, SVG Export Plug-In . SVG Version: 2.1.1 Build 123)  -->
  <defs>
    <linearGradient id="linear-gradient" x1="406.2" y1="192.9" x2="406.2" y2="578.3" gradientUnits="userSpaceOnUse">
      <stop offset="0" stop-color="#a199ff"/>
      <stop offset="1" stop-color="#5f5daf"/>
    </linearGradient>
    <linearGradient id="linear-gradient1" x1="212.3" y1="545.7" x2="212.3" y2="687.6" gradientUnits="userSpaceOnUse">
      <stop offset="0" stop-color="#a199ff"/>
      <stop offset="1" stop-color="#5f5daf"/>
    </linearGradient>
    <linearGradient id="linear-gradient2" x1="333.6" y1="940" x2="333.6" y2="759.1" gradientUnits="userSpaceOnUse">
      <stop offset="0" stop-color="#a199ff"/>
      <stop offset="1" stop-color="#5f5daf"/>
    </linearGradient>
    <linearGradient id="linear-gradient3" x1="491.3" y1="131.7" x2="563.9" y2="131.7" xlink:href="#linear-gradient2"/>
    <linearGradient id="linear-gradient4" x1="248.8" y1="131.7" x2="321.4" y2="131.7" xlink:href="#linear-gradient2"/>
    <linearGradient id="linear-gradient5" x1="348.3" y1="580.6" x2="398.9" y2="580.6" gradientUnits="userSpaceOnUse">
      <stop offset="0" stop-color="#a199ff" stop-opacity="0"/>
      <stop offset=".1" stop-color="#9e96fb" stop-opacity="0"/>
      <stop offset=".3" stop-color="#9790f3" stop-opacity=".1"/>
      <stop offset=".5" stop-color="#8c85e5" stop-opacity=".3"/>
      <stop offset=".7" stop-color="#7c77d2" stop-opacity=".6"/>
      <stop offset=".9" stop-color="#6765b9" stop-opacity=".9"/>
      <stop offset="1" stop-color="#5f5daf"/>
    </linearGradient>
    <linearGradient id="linear-gradient6" x1="618.9" y1="545.7" x2="618.9" y2="687.6" gradientTransform="translate(1204.9) rotate(-180) scale(1 -1)" xlink:href="#linear-gradient1"/>
    <linearGradient id="linear-gradient7" x1="754.8" y1="580.6" x2="805.4" y2="580.6" gradientTransform="translate(1204.9) rotate(-180) scale(1 -1)" xlink:href="#linear-gradient5"/>
    <linearGradient id="linear-gradient8" x1="17.9" y1="373.2" x2="51.4" y2="373.2" xlink:href="#linear-gradient2"/>
    <linearGradient id="linear-gradient9" x1="257.7" y1="462.9" x2="-10.1" y2="462.9" xlink:href="#linear-gradient2"/>
    <linearGradient id="linear-gradient10" x1="33.3" y1="371.9" x2="69.9" y2="371.9" xlink:href="#linear-gradient2"/>
    <linearGradient id="linear-gradient11" x1="669.1" y1="373.2" x2="702.6" y2="373.2" gradientTransform="translate(1463.6) rotate(-180) scale(1 -1)" xlink:href="#linear-gradient2"/>
    <linearGradient id="linear-gradient12" x1="908.9" y1="462.9" x2="641.1" y2="462.9" gradientTransform="translate(1463.6) rotate(-180) scale(1 -1)" xlink:href="#linear-gradient2"/>
    <linearGradient id="linear-gradient13" x1="684.5" y1="371.9" x2="721.1" y2="371.9" gradientTransform="translate(1463.6) rotate(-180) scale(1 -1)" xlink:href="#linear-gradient2"/>
  </defs>
  <path d="M323.9,570.7c10.7,0,19.8-7.1,22.7-16.9h0l19.8-59h0c4.3-14.1,17.3-24.4,32.8-24.4s28.6,10.3,32.8,24.4h0l19.8,59h0c2.9,9.8,12,16.9,22.7,16.9s3.9-.3,5.7-.7l83.6-10.6V184.9c-44-32.8-98.5-52.3-157.6-52.3s-113.6,19.4-157.6,52.3v376.2l69.4,8.8c1.8.5,3.8.7,5.7.7h.2Z" fill="url(#linear-gradient)"/>
  <path d="M366.4,494.8h0l-19.8,59h0c-2.9,9.8-12,16.9-22.7,16.9s-3.9-.3-5.7-.7l-199.8-25.4c-6-1.6-12.2-2.4-18.7-2.4-41,0-74.2,33.2-74.2,74.2s33.2,74.2,74.2,74.2h267c18,0,32.5-14.6,32.5-32.5h0v-187.5c-15.5,0-28.6,10.3-32.8,24.4v-.2Z" fill="url(#linear-gradient1)"/>
  <path d="M399.3,658c0,14-8.8,25.9-21.2,30.5v62.6c0,11.8-9.6,21.3-21.3,21.3h-211c-35.2,0-63.8,28.6-63.8,63.8s28.6,63.8,63.8,63.8h418.2c11.7,0,21.2-9.5,21.2-21.2s-9.5-21.2-21.2-21.2H145.8c-11.8,0-21.3-9.6-21.3-21.3s9.6-21.3,21.3-21.3h211c35.2,0,63.8-28.6,63.8-63.8v-62.6c-12.4-4.6-21.2-16.5-21.2-30.5h0Z" fill="url(#linear-gradient2)"/>
  <path d="M406.5,324.8l-15.2-15.1c-5-5-1.5-13.5,5.5-13.5h19.3c7,0,10.5,8.5,5.6,13.5l-15.1,15.1" fill="#a8a6ff"/>
  <path d="M550,81.1l-58.7,65.6c26.3,9,50.8,21.9,72.6,38.2v-98.5c0-7.3-9-10.8-13.9-5.3h0Z" fill="url(#linear-gradient3)"/>
  <path d="M262.7,81.1l58.7,65.6c-26.3,9-50.8,21.9-72.6,38.2v-98.5c0-7.3,9-10.8,13.9-5.3Z" fill="url(#linear-gradient4)"/>
  <path d="M366.4,494.8h0l-19.8,59h0c-2.9,9.8-12,16.9-22.7,16.9s-3.9-.3-5.7-.7l-199.8-25.4c-6-1.6-12.2-2.4-18.7-2.4-41,0-74.2,33.2-74.2,74.2s33.2,74.2,74.2,74.2h267c18,0,32.5-14.6,32.5-32.5h0v-187.5c-15.5,0-28.6,10.3-32.8,24.4v-.2Z" fill="url(#linear-gradient5)"/>
  <g>
    <path d="M432,495c-4.2-14.1-17.3-24.4-32.8-24.4v187.5h0c0,17.9,14.5,32.5,32.5,32.5h267c41,0,74.2-33.2,74.2-74.2s-33.2-74.2-74.2-74.2c-6.5,0-12.7.8-18.7,2.4l-199.8,25.4c-1.8.4,5,.7-5.7.7s-19.8-7.1-22.7-16.9h0l-19.8-59h0v.2Z" fill="url(#linear-gradient6)"/>
    <path d="M432,495c-4.2-14.1-17.3-24.4-32.8-24.4v187.5h0c0,17.9,14.5,32.5,32.5,32.5h267c41,0,74.2-33.2,74.2-74.2s-33.2-74.2-74.2-74.2c-6.5,0-12.7.8-18.7,2.4l-199.8,25.4c-1.8.4,5,.7-5.7.7s-19.8-7.1-22.7-16.9h0l-19.8-59h0v.2Z" fill="url(#linear-gradient7)"/>
  </g>
  <g>
    <path d="M85.7,470.6c29.5,0,53.6-24,53.6-53.6s-12.8-40.9-32.7-49.3c-7.6-3.2-16.4.3-19.6,7.9s.3,16.4,7.9,19.6c8.8,3.7,14.5,12.3,14.5,21.8s-10.6,23.7-23.7,23.7-23.7-10.6-23.7-23.7,5.7-18.1,14.5-21.8c7.6-3.2,11.2-12,7.9-19.6-3.2-7.6-12-11.2-19.6-7.9-19.9,8.4-32.7,27.8-32.7,49.3s24,53.6,53.6,53.6Z" fill="#a199ff"/>
    <path d="M31.9,338.3c8.2-.6,15.3,5.7,15.9,13.9.5,7.6,1.8,16.3,3.6,23.7-9.8,8.1-16.4,19.6-18.6,32.3-5.3-7.4-9.3-18.1-12.1-32.7-2.2-11.3-2.8-21-2.8-21.4-.5-8.2,5.7-15.3,13.9-15.9h.1Z" fill="url(#linear-gradient8)"/>
    <path d="M85.7,470.6c13.6,0,26-5.1,35.4-13.5l52.1,37.4c.1,0,.2.2.4.3h0c1.2.7,2.5,1.2,4,1.2,2.9,0,5.4-1.6,6.6-4h0s10.4-19.4,18.7-39.7c6.7-16.5,35.2-67.3,45.7-86v133.9l-23.8,44c-.1.2-.2.4-.4.7l-.2.3h0c-4.9,8.6-14.1,14.3-24.7,14.3h0c-77,.2-137.5-82.7-152.5-105.4,9.7,10.1,23.4,16.4,38.5,16.4h.2Z" fill="url(#linear-gradient9)"/>
    <path d="M34,403.1c-1.3-8.2-.8-18.4,1.5-30.9,2.1-11.3,5-20.6,5.2-21,2.5-7.9,10.9-12.2,18.8-9.7s12.2,10.9,9.7,18.8c-.7,2.1-1.3,4.4-1.9,6.7-.8.2-1.6.4-2.4.8-15.4,6.5-26.6,19.7-30.8,35.3h0Z" fill="url(#linear-gradient10)"/>
  </g>
  <g>
    <path d="M780.3,417c0-21.5-12.8-40.9-32.7-49.3-7.6-3.3-16.4.3-19.6,7.9-3.3,7.6.3,16.4,7.9,19.6,8.8,3.7,14.5,8.7,14.5,21.8s-10.6,23.7-23.7,23.7-23.7-14.2-23.7-23.7,5.7-18.1,14.5-21.8c7.6-3.2,11.1-12,7.9-19.6-3.2-7.6-12-11.1-19.6-7.9-19.9,8.4-32.7,27.7-32.7,49.3,0,29.6,24.1,53.6,53.6,53.6s53.6-24.1,53.6-53.6Z" fill="#a199ff"/>
    <path d="M780.6,338.2c8.2.6,14.4,7.7,13.9,15.9,0,.4-.6,10.1-2.8,21.4-2.8,14.6-6.8,25.3-12.1,32.7-2.2-12.7-8.8-24.2-18.6-32.3,1.8-7.4,3.1-16.1,3.6-23.7.6-8.2,7.7-14.5,15.9-13.9h.1Z" fill="url(#linear-gradient11)"/>
    <path d="M726.9,470.5c15.1,0,28.8-6.3,38.5-16.4-15,22.7-75.5,105.6-152.5,105.4h0c-10.6,0-19.8-5.7-24.7-14.3h0l-.2-.3c-.2-.3-.3-.5-.4-.7l-23.8-44v-133.9c10.5,18.7,39,69.5,45.7,86,8.3,20.3,18.7,39.7,18.7,39.7h0c1.2,2.4,3.7,4,6.6,4s2.8-.5,4-1.2h0c.2,0,.3-.3.4-.3l52.1-37.4c9.4,8.4,21.8,13.5,35.4,13.5h.2Z" fill="url(#linear-gradient12)"/>
    <path d="M778.3,403.1c-4.2-15.6-15.4-28.8-30.8-35.3-.8-.4-1.6-.6-2.4-.8-.6-2.3-1.2-4.6-1.9-6.7-2.5-7.9,1.8-16.3,9.7-18.8s16.3,1.8,18.8,9.7c.2.4,3.1,9.7,5.2,21,2.3,12.5,2.8,22.7,1.5,30.9h0Z" fill="url(#linear-gradient13)"/>
  </g>
  <g>
    <g>
      <path d="M144.8,307.1c13.1,0,13.1,12,26.1,12s13.1-12,26.1-12,13.1,12,26.1,12,13.1-12,26.1-12,13.1,12,26.1,12,13.1-12,26.1-12,13.1,12,26.1,12,13.1-12,26.2-12,13.1,12,26.2,12" fill="none" stroke="#bbf" stroke-linecap="round" stroke-linejoin="round" stroke-width="2"/>
      <path d="M151.2,368.2c12.6-3.4,15.7,8.2,28.4,4.8s9.5-15,22.1-18.4,15.7,8.2,28.4,4.8,9.5-15,22.2-18.4,15.7,8.2,28.4,4.8,9.5-15,22.2-18.4,15.7,8.2,28.4,4.8,9.5-15,22.2-18.4,15.7,8.2,28.4,4.8" fill="none" stroke="#bbf" stroke-linecap="round" stroke-linejoin="round" stroke-width="2"/>
      <path d="M173.3,425.6c11.3-6.5,17.3,3.9,28.6-2.7s5.3-16.9,16.6-23.5,17.3,3.9,28.6-2.7,5.3-16.9,16.6-23.5,17.3,3.9,28.6-2.7c11.3-6.5,5.3-16.9,16.6-23.5s17.3,3.9,28.6-2.7,5.3-16.9,16.6-23.5,17.3,3.9,28.6-2.7" fill="none" stroke="#bbf" stroke-linecap="round" stroke-linejoin="round" stroke-width="2"/>
    </g>
    <g>
      <path d="M668,307.1c-13.1,0-13.1,12-26.1,12-13.1,0-13.1-12-26.1-12s-13.1,12-26.1,12c-13.1,0-13.1-12-26.1-12-13.1,0-13.1,12-26.1,12-13.1,0-13.1-12-26.1-12s-13.1,12-26.1,12c-13.1,0-13.1-12-26.2-12-13.1,0-13.1,12-26.2,12" fill="none" stroke="#bbf" stroke-linecap="round" stroke-linejoin="round" stroke-width="2"/>
      <path d="M661.5,368.2c-12.6-3.4-15.7,8.2-28.4,4.8s-9.5-15-22.1-18.4-15.7,8.2-28.4,4.8c-12.6-3.4-9.5-15-22.2-18.4-12.6-3.4-15.7,8.2-28.4,4.8-12.6-3.4-9.5-15-22.2-18.4-12.6-3.4-15.7,8.2-28.4,4.8s-9.5-15-22.2-18.4c-12.6-3.4-15.7,8.2-28.4,4.8" fill="none" stroke="#bbf" stroke-linecap="round" stroke-linejoin="round" stroke-width="2"/>
      <path d="M639.4,425.6c-11.3-6.5-17.3,3.9-28.6-2.7-11.3-6.5-5.3-16.9-16.6-23.5-11.3-6.5-17.3,3.9-28.6-2.7-11.3-6.5-5.3-16.9-16.6-23.5s-17.3,3.9-28.6-2.7c-11.3-6.5-5.3-16.9-16.6-23.5s-17.3,3.9-28.6-2.7-5.3-16.9-16.6-23.5c-11.3-6.5-17.3,3.9-28.6-2.7" fill="none" stroke="#bbf" stroke-linecap="round" stroke-linejoin="round" stroke-width="2"/>
    </g>
  </g>
</svg>